<?xml version="1.0" encoding="UTF-8"?>
<svg version="1.1" xmlns="http://www.w3.org/2000/svg" width="500" height="500">
<path d="M0 0 C2.03273074 0.93166826 4.03384339 1.9349985 6 3 C7.49071198 3.372678 8.99229008 3.70348372 10.5 4 C14.37346376 4.77338193 17.53835484 6.04727709 21 8 C21 8.66 21 9.32 21 10 C21.66 10 22.32 10 23 10 C23.99 13.465 23.99 13.465 25 17 C25.556875 17.04125 26.11375 17.0825 26.6875 17.125 C30.15232144 18.43601352 32.01779261 20.9897325 34 24 C34.495 25.19625 34.99 26.3925 35.5 27.625 C37.16132397 31.36297893 38.77669266 32.60318172 42 35 C43.92175416 38.11075313 44.4928404 41.10199547 45.0625 44.6875 C45.37052407 48.1517996 45.37052407 48.1517996 47 51 C47.56847656 50.7834375 48.13695312 50.566875 48.72265625 50.34375 C56.57434048 47.5124248 61.9714267 47.64679748 70 50 C71.51893164 50.1463069 73.04012424 50.27044823 74.5625 50.375 C78.98668381 50.82568086 81.57326919 52.04055067 85 55 C86.30941424 56.73780285 87.51426305 58.52155508 88.71484375 60.3359375 C90.67855257 62.87861214 93.31395655 64.28550418 96 66 C100.22082413 70.10674781 100.72022802 73.31130301 101 79 C100.67 79.66 100.34 80.32 100 81 C100.99 81.33 101.98 81.66 103 82 C107.015053 88.64027996 107.34374548 93.70336378 105.5703125 101.046875 C105 103 105 103 104 105 C104.226875 105.86625 104.45375 106.7325 104.6875 107.625 C105.11605392 112.25338238 103.38803874 115.12175104 101 119 C100.67 119.33 100.34 119.66 100 120 C99.76712992 121.68183948 99.58735834 123.3712416 99.4375 125.0625 C99.35371094 125.98160156 99.26992188 126.90070313 99.18359375 127.84765625 C99.12300781 128.55792969 99.06242187 129.26820313 99 130 C99.99580078 130.34611328 99.99580078 130.34611328 101.01171875 130.69921875 C107.8433656 133.22244014 111.89070272 135.83605409 116 142 C116 143.32 116 144.64 116 146 C116.86625 146.37125 116.86625 146.37125 117.75 146.75 C122.03117451 149.12843028 124.57623374 152.17725801 126.4140625 156.7421875 C127.44211718 160.70362486 127.52994014 164.74061024 127.69140625 168.81640625 C128.01342748 172.13852396 128.93309422 174.85111614 130 178 C130.31671799 183.74315283 128.35409775 187.38811559 125 192 C124.20554971 194.31112811 123.97210834 196.30680829 123.75 198.75 C122.43617745 204.44323105 119.90869274 208.79245969 114.9375 211.9375 C112 213 112 213 109.875 213.4375 C107.81044948 213.8903156 107.81044948 213.8903156 106.1875 215.875 C103.3461462 218.63517226 100.68333506 219.58333267 97 221 C97.37125 222.485 97.37125 222.485 97.75 224 C98.36746139 228.11362793 97.05312837 230.59410479 95.0078125 234.10546875 C93.95418329 236.08612831 93.49268124 237.81812593 93 240 C92.49266847 241.5877111 91.97154818 243.17107494 91.4375 244.75 C91.03337891 245.94882812 91.03337891 245.94882812 90.62109375 247.171875 C90.31365234 248.07679688 90.31365234 248.07679688 90 249 C89.34 249 88.68 249 88 249 C87.57847656 249.86431641 87.57847656 249.86431641 87.1484375 250.74609375 C83.63892838 257.63380382 80.74028996 262.42514107 73.4375 265.5 C70.35741861 266.84403551 69.20691473 267.6879941 67 270 C63.90828688 271.02828596 61.11408021 271.07735117 57.875 271 C54.29616131 270.84683513 54.29616131 270.84683513 51 272 C39.70526947 273.03140503 39.70526947 273.03140503 35.4375 270.125 C34.633125 269.42375 33.82875 268.7225 33 268 C32.01 267.34 31.02 266.68 30 266 C29.79375 266.763125 29.5875 267.52625 29.375 268.3125 C25.38999018 278.9995718 16.46906026 296.88645644 5.8125 302.0625 C3.84472902 302.83435173 3.84472902 302.83435173 3.25390625 304.78515625 C-2.00702803 314.07783455 -18.905558 320.91941102 -28.52197266 323.83496094 C-48.60183151 329.31714408 -67.85461034 326.00254451 -85.87329102 316.0949707 C-92.0645991 312.52742587 -98.22333087 308.38112417 -103 303 C-103 302.34 -103 301.68 -103 301 C-103.66 301 -104.32 301 -105 301 C-105 300.34 -105 299.68 -105 299 C-105.66 299 -106.32 299 -107 299 C-130.51709364 273.40254808 -138.39315054 238.92676744 -138.8581543 205.11865234 C-138.92329465 202.80986928 -138.92329465 202.80986928 -140 200 C-142.74104923 198.68023556 -144.09706883 199.02575296 -147.0625 199.8125 C-151.32889223 201.49033233 -151.32889223 201.49033233 -153.984375 205.03125 C-156.39776348 212.81319651 -156.74136223 219.62411473 -153.375 227.1875 C-150.44301611 232.45440924 -146.33128649 236.71035215 -141.0625 239.625 C-140.381875 240.07875 -139.70125 240.5325 -139 241 C-138.625 243.625 -138.625 243.625 -139 246 C-140 247 -140 247 -142.3203125 247.21875 C-148.32035604 246.72895053 -152.84920441 241.36062783 -156.75 237.125 C-162.41458701 230.31201153 -164.64562904 223.69648723 -166 215 C-166.66 215.33 -167.32 215.66 -168 216 C-173.24308569 216.40331428 -176.56127553 215.86051133 -181 213 C-183.94675381 210.13079234 -184.93789433 208.82290012 -185.25 204.6875 C-185.1675 203.800625 -185.085 202.91375 -185 202 C-186.65 201.67 -188.3 201.34 -190 201 C-190 200.34 -190 199.68 -190 199 C-190.61875 198.71125 -191.2375 198.4225 -191.875 198.125 C-194 197 -194 197 -196 195 C-196.0546875 192.79296875 -196.0546875 192.79296875 -195.875 190.1875 C-195.78178982 186.3878143 -195.80532228 185.30143647 -197.9375 182 C-198.618125 181.34 -199.29875 180.68 -200 180 C-201.58869342 176.82261315 -201.41415753 173.46021937 -201 170 C-200.46375 169.113125 -199.9275 168.22625 -199.375 167.3125 C-198.92125 166.549375 -198.4675 165.78625 -198 165 C-198.62056011 163.31562256 -199.29289322 161.64991582 -200 160 C-199.91955738 155.49521339 -199.46441138 153.55967525 -196.5625 150.0625 C-194 148 -194 148 -192 148 C-191.855625 147.113125 -191.71125 146.22625 -191.5625 145.3125 C-191 142 -191 142 -190.3125 139.6875 C-189.91182096 136.24166024 -190.75664313 133.52797465 -191.59765625 130.19140625 C-192 128 -192 128 -191.4375 125 C-190.96419484 121.75447887 -191.36186323 120.61579886 -192.5 117.625 C-194.69423839 111.63613835 -194.06679541 107.38962172 -191.4375 101.5 C-190.963125 100.675 -190.48875 99.85 -190 99 C-189.34 99 -188.68 99 -188 99 C-188 98.34 -188 97.68 -188 97 C-187.01 97 -186.02 97 -185 97 C-185.061875 95.824375 -185.12375 94.64875 -185.1875 93.4375 C-185.16731574 87.72535514 -183.25579904 83.69902223 -179.875 79.125 C-176.02252514 76.27751858 -172.69294723 76.11246714 -168 76 C-167.979375 75.29875 -167.95875 74.5975 -167.9375 73.875 C-166.53909695 69.58656399 -163.84265368 67.27904028 -160 65 C-157.93359375 64.57421875 -157.93359375 64.57421875 -155.875 64.4375 C-151.14823383 63.90383285 -150.01785909 62.53520637 -147 59 C-143.88082461 56.92054974 -143.41258857 56.79214424 -139.9375 57 C-138.638125 57 -137.33875 57 -136 57 C-135.01 56.01 -135.01 56.01 -134 55 C-134.20646957 53.41706666 -134.42485614 51.83498319 -134.6953125 50.26171875 C-135.6262525 43.35127949 -136.3341967 35.82874729 -132 30 C-128.33937303 27.03192408 -125.64687703 26.67579928 -121 27 C-120.5359375 25.576875 -120.5359375 25.576875 -120.0625 24.125 C-119 21 -119 21 -118 19 C-117.34 19 -116.68 19 -116 19 C-116 18.34 -116 17.68 -116 17 C-110.37129115 14.06838081 -107.22833095 13.7980414 -101 15 C-101 14.34 -101 13.68 -101 13 C-96.04523182 9.95091189 -91.70326801 9.00452049 -86 10 C-85.05125 10.680625 -84.1025 11.36125 -83.125 12.0625 C-78.92700816 14.66525494 -76.31026986 13.8144079 -71.5625 13.17578125 C-69 13 -69 13 -65.9375 14.25 C-64 16 -64 16 -62 19 C-62 20.32 -62 21.64 -62 23 C-60.72125 23.144375 -59.4425 23.28875 -58.125 23.4375 C-55.74307106 23.70642746 -54.15547309 23.92226346 -52 25 C-52 25.66 -52 26.32 -52 27 C-50.65608877 26.35492261 -49.32646156 25.6802367 -48 25 C-46.2365625 24.195625 -46.2365625 24.195625 -44.4375 23.375 C-40.721862 21.25629578 -39.89075172 18.99909294 -38.6640625 15.0234375 C-37.25551294 10.73150413 -34.75327925 7.7339644 -31.5625 4.625 C-26.90049482 2.49847132 -23.10356868 2.88126626 -18.046875 3.05859375 C-11.39133659 2.93060263 -7.1652404 -0.98651861 0 0 Z M-45 135 C-45.495 135.928125 -45.99 136.85625 -46.5 137.8125 C-48.89220271 141.58176404 -51.79475066 142.13363546 -55.9375 143.28515625 C-58.20207625 143.90194613 -58.20207625 143.90194613 -60.0625 146.0625 C-61.14518698 147.94132026 -61.14518698 147.94132026 -61 150 C-61.60328125 150.13277344 -62.2065625 150.26554688 -62.828125 150.40234375 C-63.62734375 150.57894531 -64.4265625 150.75554687 -65.25 150.9375 C-66.03890625 151.11152344 -66.8278125 151.28554687 -67.640625 151.46484375 C-68.41921875 151.64144531 -69.1978125 151.81804687 -70 152 C-71.06541016 152.2165625 -71.06541016 152.2165625 -72.15234375 152.4375 C-74.25382145 152.93614949 -74.25382145 152.93614949 -76.3125 155.0625 C-79.76848401 157.55402336 -81.82091079 157.30393376 -86 157 C-90.04622502 156.63019987 -90.04622502 156.63019987 -93 159 C-96.70544587 159.19850603 -99.47005387 159.17664871 -103 158 C-103 157.34 -103 156.68 -103 156 C-103.70125 156.309375 -104.4025 156.61875 -105.125 156.9375 C-110.7413904 159.01312254 -115.1161799 159.05908762 -121 158 C-126.56092966 166.46850145 -128.53873439 176.99053636 -129 187 C-128.443125 186.79503906 -127.88625 186.59007812 -127.3125 186.37890625 C-122.16382446 184.56121505 -117.43723984 183.49429453 -112 183 C-112 182.01 -112 181.02 -112 180 C-110.27054347 180.14235457 -108.54144346 180.28904382 -106.8125 180.4375 C-105.84957031 180.51871094 -104.88664062 180.59992188 -103.89453125 180.68359375 C-101.21350398 180.97666151 -98.6337014 181.42703754 -96 182 C-95.67 181.01 -95.34 180.02 -95 179 C-91.50931692 179.41555751 -89.01807484 179.99060108 -85.875 181.625 C-83.19666869 183.21863546 -83.19666869 183.21863546 -80.8125 182.75 C-80.214375 182.5025 -79.61625 182.255 -79 182 C-78.01 181.67 -77.02 181.34 -76 181 C-75.443125 181.28875 -74.88625 181.5775 -74.3125 181.875 C-70.94753676 183.51200914 -67.71895811 183.58678243 -64 184 C-62.515 184.495 -62.515 184.495 -61 185 C-59.8125 188.0625 -59.8125 188.0625 -59 191 C-57.68 191 -56.36 191 -55 191 C-54.01879536 187.94736336 -54.01879536 186.05263664 -55 183 C-50.59085217 181.89771304 -46.51617599 181.92345464 -42 182 C-41.67 180.68 -41.34 179.36 -41 178 C-39.39536551 178.31008884 -37.79130769 178.62316287 -36.1875 178.9375 C-35.29417969 179.11152344 -34.40085937 179.28554688 -33.48046875 179.46484375 C-31 180 -31 180 -28 181 C-28 179.68 -28 178.36 -28 177 C-21.59413203 177.6405868 -21.59413203 177.6405868 -18.46875 179.53125 C-13.50277981 181.6339581 -8.95405426 181.32158588 -3.625 181.1875 C-2.60277344 181.17396484 -1.58054687 181.16042969 -0.52734375 181.14648438 C1.98232049 181.11130217 4.4908809 181.06207539 7 181 C6.67 180.01 6.34 179.02 6 178 C5.01 178 4.02 178 3 178 C1 174 1 174 0.23828125 171.91796875 C-0.84836779 169.77308018 -0.84836779 169.77308018 -3.27734375 169.34765625 C-4.59412109 169.20650391 -4.59412109 169.20650391 -5.9375 169.0625 C-8.67578125 168.62890625 -8.67578125 168.62890625 -11 168 C-12.625 165.5 -12.625 165.5 -14 163 C-16.02464593 162.26768126 -18.01805385 161.87145548 -20.12890625 161.45703125 C-22.51585053 160.87399893 -23.62215422 160.02624379 -25 158 C-25.495 156.515 -25.495 156.515 -26 155 C-27.76002966 153.97897476 -27.76002966 153.97897476 -29.875 153.3125 C-30.57367188 153.06113281 -31.27234375 152.80976563 -31.9921875 152.55078125 C-34.13518866 151.86772704 -34.13518866 151.86772704 -37 152 C-37.96070434 149.11788698 -38.10581883 147.30149956 -38.0625 144.3125 C-38.05347656 143.50425781 -38.04445313 142.69601563 -38.03515625 141.86328125 C-38.02355469 141.24839844 -38.01195312 140.63351563 -38 140 C-38.804375 139.731875 -39.60875 139.46375 -40.4375 139.1875 C-41.7059375 138.5996875 -41.7059375 138.5996875 -43 138 C-43.495 136.515 -43.495 136.515 -44 135 C-44.33 135 -44.66 135 -45 135 Z M-130 187 C-129 189 -129 189 -129 189 Z M-44 190 C-44.99 190 -45.98 190 -47 190 C-48.09898702 193.29696105 -47.87124444 194.40494903 -47.0625 197.6875 C-46.86785156 198.49574219 -46.67320312 199.30398438 -46.47265625 200.13671875 C-46.31667969 200.75160156 -46.16070312 201.36648438 -46 202 C-44.99259766 201.89171875 -44.99259766 201.89171875 -43.96484375 201.78125 C-36.29184163 201.06840335 -28.64077934 200.83204605 -20.9375 200.75 C-19.9261499 200.72873047 -18.9147998 200.70746094 -17.87280273 200.68554688 C-16.91317627 200.68103516 -15.9535498 200.67652344 -14.96484375 200.671875 C-14.1049585 200.6625293 -13.24507324 200.65318359 -12.35913086 200.64355469 C-9.45428104 201.08245366 -8.08794988 201.95410139 -6 204 C-5.6875 207.125 -5.6875 207.125 -6 210 C-7 211 -7 211 -10.375 211.1875 C-14 211 -14 211 -17 209 C-19.45741537 208.49985047 -19.45741537 208.49985047 -22 209 C-22.61875 209.639375 -23.2375 210.27875 -23.875 210.9375 C-26.82507003 213.80080327 -28.94616401 213.92888007 -33 214 C-35.94755732 212.65437601 -37.54277272 211.91445456 -39 209 C-40.65 209 -42.3 209 -44 209 C-43.74279326 210.58560393 -43.46861201 212.16845924 -43.1875 213.75 C-43.03667969 214.63171875 -42.88585937 215.5134375 -42.73046875 216.421875 C-41.9136226 219.30486142 -41.03862338 220.81286834 -39 223 C-36.83573677 223.58952078 -36.83573677 223.58952078 -34.39257812 223.48583984 C-33.46151245 223.4919931 -32.53044678 223.49814636 -31.57116699 223.50448608 C-30.56799438 223.49011505 -29.56482178 223.47574402 -28.53125 223.4609375 C-27.49939575 223.46002106 -26.4675415 223.45910461 -25.40441895 223.4581604 C-23.22220258 223.45211679 -21.0399948 223.43634818 -18.85791016 223.41162109 C-15.51303627 223.37514217 -12.16927065 223.37060147 -8.82421875 223.37109375 C-6.70571957 223.36126178 -4.58722791 223.34960443 -2.46875 223.3359375 C-1.46557739 223.33371185 -0.46240479 223.33148621 0.57116699 223.32919312 C1.50223267 223.31643341 2.43329834 223.30367371 3.39257812 223.29052734 C4.62143738 223.27909195 4.62143738 223.27909195 5.87512207 223.26742554 C8.29922982 223.12295747 8.29922982 223.12295747 11 221 C12.18129913 217.97905453 12.18129913 217.97905453 13.0625 214.4375 C13.39894531 213.17679688 13.73539063 211.91609375 14.08203125 210.6171875 C14.38496094 209.42351562 14.68789063 208.22984375 15 207 C15.23074219 206.11570312 15.46148437 205.23140625 15.69921875 204.3203125 C16.79353603 199.83438776 17.47371521 195.64240907 17 191 C13.57905758 188.71937172 12.31812778 188.78074993 8.3125 188.875 C7.31863281 188.89304687 6.32476562 188.91109375 5.30078125 188.9296875 C4.54152344 188.95289063 3.78226563 188.97609375 3 189 C3 190.32 3 191.64 3 193 C-0.86648272 191.95902388 -4.49461443 190.96301592 -8 189 C-8.33 189.99 -8.66 190.98 -9 192 C-10.216875 191.505 -11.43375 191.01 -12.6875 190.5 C-15.91674468 189.28617044 -18.51129162 188.57712626 -22 189 C-22.33 189.33 -22.66 189.66 -23 190 C-24.63397 189.76171271 -26.26752652 189.52011411 -27.8984375 189.26171875 C-33.34147494 188.58386836 -38.65977282 188.74347596 -44 190 Z M32.5 190.5625 C31.5409375 190.85253906 30.581875 191.14257812 29.59375 191.44140625 C25.48111571 193.91270306 24.64251555 197.60445179 23.46337891 202.00073242 C22.96126558 204.09836705 22.50745865 206.20204968 22.0625 208.3125 C18.89376971 222.40815015 18.89376971 222.40815015 16 227 C12.82733439 229.00185651 10.28962549 229.26494482 6.57641602 229.30639648 C5.49171524 229.32238388 4.40701447 229.33837128 3.28944397 229.35484314 C1.5393528 229.36288719 1.5393528 229.36288719 -0.24609375 229.37109375 C-1.44935806 229.38012222 -2.65262238 229.3891507 -3.89234924 229.39845276 C-6.43675242 229.41295839 -8.98119292 229.42184276 -11.52563477 229.42553711 C-15.41942004 229.43744471 -19.31162675 229.48664099 -23.20507812 229.53710938 C-25.67707559 229.54657219 -28.1490828 229.5538079 -30.62109375 229.55859375 C-32.36814857 229.58789223 -32.36814857 229.58789223 -34.15049744 229.61778259 C-42.19291775 229.57285037 -42.19291775 229.57285037 -46.16552734 226.75317383 C-47.84153125 224.23782966 -48.92527875 222.28405709 -49.73046875 219.390625 C-49.97603516 218.55402344 -50.22160156 217.71742188 -50.47460938 216.85546875 C-50.70986328 215.99566406 -50.94511719 215.13585937 -51.1875 214.25 C-51.67425204 212.52412725 -52.16741082 210.80004429 -52.66796875 209.078125 C-52.87703857 208.31918945 -53.0861084 207.56025391 -53.30151367 206.77832031 C-53.85143494 204.79552617 -53.85143494 204.79552617 -56 204 C-56.07476562 204.98097656 -56.14953125 205.96195313 -56.2265625 206.97265625 C-57.05769449 216.00684672 -58.98376764 223.49637537 -62.66015625 231.79296875 C-65.06281374 237.39011625 -65.06281374 237.39011625 -63.78515625 243.15625 C-63.21667969 244.2596875 -62.64820313 245.363125 -62.0625 246.5 C-59.97664525 250.5671792 -58.5785554 253.38991208 -59 258 C-60.98 258 -62.96 258 -65 258 C-65.226875 257.21625 -65.45375 256.4325 -65.6875 255.625 C-66.80788184 252.53061206 -68.08374322 249.89040223 -69.625 247 C-72.59946148 241.16480645 -72.28328021 237.27965808 -71 231 C-71.8853669 230.99120064 -71.8853669 230.99120064 -72.78862 230.98222351 C-78.93711264 230.91824332 -85.0850841 230.8338116 -91.2331543 230.73754883 C-93.52702967 230.70431366 -95.82098654 230.67627736 -98.11499023 230.65356445 C-101.41425273 230.61999326 -104.7127693 230.56767465 -108.01171875 230.51171875 C-109.03585373 230.50532883 -110.05998871 230.4989389 -111.11515808 230.49235535 C-120.12869776 230.30662558 -120.12869776 230.30662558 -124 227 C-128.68003866 219.97994201 -128.8115514 210.1800664 -130 202 C-130.33 202 -130.66 202 -131 202 C-132.14885382 236.84856595 -122.97707589 268.74791369 -99.11328125 294.7734375 C-98.41589844 295.50820313 -97.71851563 296.24296875 -97 297 C-96.29230469 297.75539063 -95.58460938 298.51078125 -94.85546875 299.2890625 C-93.17559689 301.22596477 -93.17559689 301.22596477 -91 301 C-91 301.66 -91 302.32 -91 303 C-78.72307788 312.90321369 -64.0232421 317.17336226 -48.5 317.1875 C-47.79230469 317.19974609 -47.08460938 317.21199219 -46.35546875 317.22460938 C-38.65064236 317.24573778 -32.13970476 315.20113313 -25 312.375 C-23.865625 311.92898438 -22.73125 311.48296875 -21.5625 311.0234375 C-20.2940625 310.51683594 -20.2940625 310.51683594 -19 310 C-19 309.34 -19 308.68 -19 308 C-18.17628906 307.86658203 -18.17628906 307.86658203 -17.3359375 307.73046875 C-9.98212246 305.43086438 -3.02952778 298.7091937 2 293 C2 292.34 2 291.68 2 291 C2.66 291 3.32 291 4 291 C13.55706253 279.38200644 20.79146251 265.72958628 24.875 251.3125 C27.07680267 243.81915445 27.07680267 243.81915445 30.4609375 240.81640625 C33.25 239.375 33.25 239.375 36.1171875 238.20703125 C44.47352096 234.70824122 51.25275584 227.81827067 55.09375 219.68359375 C57.07148497 213.8271113 57.32833923 206.98876327 54.796875 201.29296875 C53.32092801 199.04550402 51.77127316 197.02056346 50 195 C49.319375 194.195625 48.63875 193.39125 47.9375 192.5625 C42.80065949 188.41988669 38.53781814 188.62293207 32.5 190.5625 Z M-121 191 C-122.86362892 192.86362892 -122.17399045 195.88383901 -122.1875 198.375 C-122.12938317 206.51965795 -121.49276533 214.53583112 -118 222 C-115.71368506 223.14315747 -114.45652594 223.12112732 -111.91748047 223.11352539 C-111.07675995 223.11344986 -110.23603943 223.11337433 -109.36984253 223.11329651 C-108.46146637 223.10813522 -107.55309021 223.10297394 -106.6171875 223.09765625 C-105.22308151 223.09553383 -105.22308151 223.09553383 -103.80081177 223.09336853 C-100.82550876 223.08776053 -97.85028036 223.07520668 -94.875 223.0625 C-92.86067817 223.05748603 -90.84635516 223.05292295 -88.83203125 223.04882812 C-83.88799198 223.0377885 -78.94400865 223.02051849 -74 223 C-71.9329052 219.08282824 -70.6049257 216.47750869 -71 212 C-72.093125 211.855625 -73.18625 211.71125 -74.3125 211.5625 C-78 211 -78 211 -81 210 C-81.495 210.639375 -81.99 211.27875 -82.5 211.9375 C-85.41811777 214.34494716 -87.28997491 214.92555849 -91 215.24609375 C-93.86616053 214.89342165 -95.30226862 213.1993223 -97.28125 211.21484375 C-100.6678587 208.82112714 -104.97173833 209.08757091 -109 209 C-109 207.68 -109 206.36 -109 205 C-100.45187037 203.13009664 -92.09813362 202.7812284 -83.375 202.75 C-81.77398437 202.73646484 -81.77398437 202.73646484 -80.140625 202.72265625 C-78.62855469 202.72845703 -78.62855469 202.72845703 -77.0859375 202.734375 C-76.1789209 202.73663086 -75.2719043 202.73888672 -74.33740234 202.74121094 C-72 203 -72 203 -69 205 C-67.57741188 201.17679443 -66.75957724 198.08718695 -67 194 C-71.2637281 191.64089647 -71.2637281 191.64089647 -76 191 C-76 191.66 -76 192.32 -76 193 C-79.71599191 193.20086443 -80.77208445 193.1519437 -84 191 C-86.10888142 190.70937305 -86.10888142 190.70937305 -88.421875 190.76953125 C-89.71351563 190.77243164 -89.71351563 190.77243164 -91.03125 190.77539062 C-92.37703125 190.79375977 -92.37703125 190.79375977 -93.75 190.8125 C-95.07257813 190.8134668 -95.07257813 190.8134668 -96.421875 190.81445312 C-101.384564 190.84768542 -106.0823604 191.29662123 -111 192 C-113.8359375 191.84375 -113.8359375 191.84375 -116.375 191.5 C-117.91212805 191.29566878 -119.45388318 191.11847639 -121 191 Z " fill="#040404" transform="translate(302,87)"/>
<path d="M0 0 C0.33 0 0.66 0 1 0 C1.04487549 0.73935791 1.08975098 1.47871582 1.13598633 2.24047852 C3.34224782 37.55989503 10.23178473 69.0496772 36 95 C36.91523438 95.71414063 37.83046875 96.42828125 38.7734375 97.1640625 C39.50820312 97.76992188 40.24296875 98.37578125 41 99 C41 99.66 41 100.32 41 101 C41.639375 101.226875 42.27875 101.45375 42.9375 101.6875 C45.46581899 102.77106528 47.69067504 103.94115393 50.0625 105.3125 C61.08256789 111.5021048 70.96272649 114.17608172 83.5 114.1875 C84.20769531 114.19974609 84.91539062 114.21199219 85.64453125 114.22460938 C92.68511064 114.24391627 98.82560979 112.6683977 105.3125 109.875 C108.21751881 108.62543147 109.80175262 108 113 108 C113 107.34 113 106.68 113 106 C113.78310547 105.63261719 113.78310547 105.63261719 114.58203125 105.2578125 C121.38142321 101.80453112 130.48019405 96.03961189 134 89 C134.66 89 135.32 89 136 89 C136.36351562 88.21109375 136.36351562 88.21109375 136.734375 87.40625 C138.03841708 84.92696013 139.52419903 82.61583901 141.07104492 80.28222656 C146.41858095 72.19835557 151.78251921 64.06148092 154.171875 54.56640625 C157.68806457 41.03292114 157.68806457 41.03292114 164.37109375 36.84423828 C166.95671745 35.43235165 169.5777194 34.12628277 172.24560547 32.87744141 C175.84897982 31.07525278 178.86245458 28.49723003 182 26 C181.66226563 26.59683594 181.32453125 27.19367188 180.9765625 27.80859375 C179.63342373 30.82259716 180.32492569 32.82715074 181 36 C181 39 181 39 179.71484375 40.46484375 C178.83505859 41.19380859 178.83505859 41.19380859 177.9375 41.9375 C177.30070313 42.47117187 176.66390625 43.00484375 176.0078125 43.5546875 C174.1250788 44.90996273 172.44228767 45.68661329 170.3125 46.5625 C166.45806408 48.57237517 165.77850548 51.62253097 164.5 55.625 C163.03190054 59.90154658 163.03190054 59.90154658 164 64 C163.34 64 162.68 64 162 64 C161.79375 64.763125 161.5875 65.52625 161.375 66.3125 C157.38999018 76.9995718 148.46906026 94.88645644 137.8125 100.0625 C135.84472902 100.83435173 135.84472902 100.83435173 135.25390625 102.78515625 C129.99297197 112.07783455 113.094442 118.91941102 103.47802734 121.83496094 C83.39816849 127.31714408 64.14538966 124.00254451 46.12670898 114.0949707 C39.9354009 110.52742587 33.77666913 106.38112417 29 101 C29 100.34 29 99.68 29 99 C28.34 99 27.68 99 27 99 C27 98.34 27 97.68 27 97 C26.34 97 25.68 97 25 97 C2.94783603 72.99706768 -6.09653666 39.93742895 -7 8 C-6.34 8 -5.68 8 -5 8 C-5 8.99 -5 9.98 -5 11 C-3.35 10.34 -1.7 9.68 0 9 C0 6.03 0 3.06 0 0 Z " fill="#151718" transform="translate(170,289)"/>
<path d="M0 0 C3.79978077 3.79978077 4.26764211 6.94024521 4.375 12.125 C4.32574 15.99683562 3.99925556 18.6572447 2 22 C1.34 22 0.68 22 0 22 C-0.25007813 22.5878125 -0.50015625 23.175625 -0.7578125 23.78125 C-4.74455756 30.9022286 -12.6883753 33.98972734 -20.10546875 36.2734375 C-30.85153374 38.97083033 -42.80343504 39.52266985 -52.8125 34.125 C-54.3903125 33.073125 -54.3903125 33.073125 -56 32 C-56.78375 31.484375 -57.5675 30.96875 -58.375 30.4375 C-61.10496067 26.342559 -61.17265051 21.83421425 -61 17 C-59.2994473 12.29847195 -56.24947313 10.45793389 -52 8 C-49.06024639 7.12936841 -46.08338365 6.63240092 -43.0625 6.125 C-35.24050042 4.66269552 -28.29452742 2.43066776 -21.00390625 -0.73046875 C-13.62733136 -3.8480069 -7.15559445 -4.05033648 0 0 Z M-27.125 9 C-33.13056828 11.51581563 -38.78062637 12.89002845 -45.29296875 13.578125 C-47.92765888 13.98872606 -49.71156225 14.66735367 -52 16 C-52 16.66 -52 17.32 -52 18 C-52.66 18 -53.32 18 -54 18 C-54.44541389 22.96173784 -54.44541389 22.96173784 -52.375 27.3125 C-44.72092562 32.75092127 -33.96214017 31.96036487 -25 31 C-17.09308574 28.96004984 -9.36433707 25.01549909 -4.0625 18.6875 C-2.55236122 14.86773721 -2.66883757 12.10641412 -3 8 C-4.76223837 4.60567529 -4.76223837 4.60567529 -8.6875 4.1875 C-15.20708588 3.28599414 -21.284092 6.47692959 -27.125 9 Z " fill="#212121" transform="translate(282,344)"/>
<path d="M0 0 C0.33 0 0.66 0 1 0 C1.04487549 0.73935791 1.08975098 1.47871582 1.13598633 2.24047852 C3.34224782 37.55989503 10.23178473 69.0496772 36 95 C36.91523438 95.71414063 37.83046875 96.42828125 38.7734375 97.1640625 C39.50820312 97.76992188 40.24296875 98.37578125 41 99 C41 99.66 41 100.32 41 101 C41.99 101.495 41.99 101.495 43 102 C38.25 101.125 38.25 101.125 36 100 C33.6599583 100.28241883 31.32495277 100.61250787 29 101 C29 100.34 29 99.68 29 99 C28.34 99 27.68 99 27 99 C27 98.34 27 97.68 27 97 C26.34 97 25.68 97 25 97 C2.94783603 72.99706768 -6.09653666 39.93742895 -7 8 C-6.34 8 -5.68 8 -5 8 C-5 8.99 -5 9.98 -5 11 C-3.35 10.34 -1.7 9.68 0 9 C0 6.03 0 3.06 0 0 Z " fill="#191B1A" transform="translate(170,289)"/>
<path d="M0 0 C4.49870356 0.38560316 7.46075799 2.28383753 11 5 C11 5.66 11 6.32 11 7 C11.66 7 12.32 7 13 7 C13.98753064 8.72440365 14.96468806 10.45475026 15.9375 12.1875 C16.75541016 13.63189453 16.75541016 13.63189453 17.58984375 15.10546875 C21.48890038 23.10879552 20.84405495 32.14337044 18.1875 40.4375 C16.91484152 44.09944067 15.61213859 47.09990913 13 50 C12.34 50 11.68 50 11 50 C11 49.01 11 48.02 11 47 C9.68 46.67 8.36 46.34 7 46 C7 42 7 42 9 38.5625 C11.92010987 32.9323601 12.01927579 27.18360647 11 21 C9.43524135 17.57126553 7.49895334 14.80904244 5 12 C4.525625 11.45988281 4.05125 10.91976563 3.5625 10.36328125 C1.73229091 8.76642382 0.1019311 8.1006648 -2.1875 7.3125 C-2.90292969 7.06113281 -3.61835938 6.80976563 -4.35546875 6.55078125 C-4.89816406 6.36902344 -5.44085938 6.18726563 -6 6 C-4 4 -2 2 0 0 Z " fill="#111413" transform="translate(346,270)"/>
<path d="M0 0 C0.33 0 0.66 0 1 0 C0.95875 1.134375 0.9175 2.26875 0.875 3.4375 C0.90104523 10.80830119 2.30857869 18.11298102 7 24 C12.04973961 29.09763459 12.04973961 29.09763459 18 33 C18.042721 34.66611905 18.04063832 36.33382885 18 38 C17 39 17 39 14.6796875 39.21875 C8.67964396 38.72895053 4.15079559 33.36062783 0.25 29.125 C-5.85112143 21.75629398 -7.64897611 15.54784982 -8 6 C-7.01 6 -6.02 6 -5 6 C-2.84550034 3.59855425 -2.84550034 3.59855425 -1 1 C-0.67 0.67 -0.34 0.34 0 0 Z " fill="#141615" transform="translate(145,295)"/>
<path d="M0 0 C0.66 0.33 1.32 0.66 2 1 C-4.62462908 12.36053412 -4.62462908 12.36053412 -10.1875 15.0625 C-12.15512488 15.82901938 -12.15512488 15.82901938 -12.69921875 17.76171875 C-14.60093953 21.03404909 -17.52811923 22.71849915 -20.625 24.75 C-21.23601562 25.16121094 -21.84703125 25.57242187 -22.4765625 25.99609375 C-23.97895328 27.00551256 -25.48876909 28.0038647 -27 29 C-29 28 -29 28 -29.80078125 26.25 C-30.42311449 23.513634 -30.60658423 21.76144291 -30 19 C-27.48329639 16.28799664 -24.78815559 14.24965062 -21.79296875 12.08203125 C-19.41237845 10.30740939 -17.89317899 8.87435049 -16.1875 6.5 C-14 4 -14 4 -10.6875 3.125 C-9.3571875 3.063125 -9.3571875 3.063125 -8 3 C-7.67 3.66 -7.34 4.32 -7 5 C-6.34 5 -5.68 5 -5 5 C-4.731875 4.360625 -4.46375 3.72125 -4.1875 3.0625 C-3 1 -3 1 0 0 Z " fill="#090C0D" transform="translate(318,374)"/>
<path d="M0 0 C3.63 0 7.26 0 11 0 C11 0.66 11 1.32 11 2 C12.05960938 1.97679687 13.11921875 1.95359375 14.2109375 1.9296875 C15.5989513 1.91093056 16.9869727 1.89273028 18.375 1.875 C19.42300781 1.84986328 19.42300781 1.84986328 20.4921875 1.82421875 C22.32897486 1.80655733 24.16601963 1.89696739 26 2 C28.62343217 4.62343217 28 5.3360952 28 9 C7.27659574 10.76595745 7.27659574 10.76595745 -1 7 C-0.649375 6.21625 -0.29875 5.4325 0.0625 4.625 C0.371875 3.75875 0.68125 2.8925 1 2 C0.67 1.34 0.34 0.68 0 0 Z " fill="#0D1011" transform="translate(234,403)"/>
<path d="M0 0 C0.33 0 0.66 0 1 0 C1.33828768 4.33296133 1.66973748 8.66642019 2 13 C2.09539062 14.22074219 2.19078125 15.44148438 2.2890625 16.69921875 C2.75214157 22.81847793 3.12273706 28.86314714 3 35 C1.02 34.34 -0.96 33.68 -3 33 C-2.67 34.32 -2.34 35.64 -2 37 C-2.66 36.67 -3.32 36.34 -4 36 C-6.48904482 27.00364848 -6.55247441 17.28026749 -7 8 C-6.34 8 -5.68 8 -5 8 C-5 8.99 -5 9.98 -5 11 C-3.35 10.34 -1.7 9.68 0 9 C0 6.03 0 3.06 0 0 Z " fill="#0C0D0E" transform="translate(170,289)"/>
<path d="M0 0 C4.36936658 0.36411388 6.91896978 1.91896978 10 5 C10 6.32 10 7.64 10 9 C10.66 9 11.32 9 12 9 C12.66 10.32 13.32 11.64 14 13 C13.360625 13.28875 12.72125 13.5775 12.0625 13.875 C9.84793921 14.82823451 9.84793921 14.82823451 9 17 C8.5875 16.45730469 8.175 15.91460937 7.75 15.35546875 C3.55409106 10.15741191 0.43954138 7.80759056 -6 6 C-4 4 -2 2 0 0 Z " fill="#1A1D1C" transform="translate(346,270)"/>
<path d="M0 0 C0.33 0 0.66 0 1 0 C0.88655624 2.1464753 0.75893655 4.29220592 0.625 6.4375 C0.55539063 7.63246094 0.48578125 8.82742188 0.4140625 10.05859375 C0.27742187 11.02925781 0.14078125 11.99992187 0 13 C-0.99 13.495 -0.99 13.495 -2 14 C-2 15.32 -2 16.64 -2 18 C-1.34 18.33 -0.68 18.66 0 19 C0 20.32 0 21.64 0 23 C-1.32 23 -2.64 23 -4 23 C-7.38495108 17.55464391 -7.67373505 12.32278971 -8 6 C-7.01 6 -6.02 6 -5 6 C-2.84550034 3.59855425 -2.84550034 3.59855425 -1 1 C-0.67 0.67 -0.34 0.34 0 0 Z " fill="#1C1E1E" transform="translate(145,295)"/>
<path d="M0 0 C0.33 0 0.66 0 1 0 C1.66 10.56 2.32 21.12 3 32 C2.34 31.34 1.68 30.68 1 30 C0.01 30.66 -0.98 31.32 -2 32 C-1.125 28.125 -1.125 28.125 0 27 C0.23075082 25.65252916 0.41153063 24.29622435 0.5625 22.9375 C0.706875 21.638125 0.85125 20.33875 1 19 C0.34 19 -0.32 19 -1 19 C-1.66 18.34 -2.32 17.68 -3 17 C-3.66 19.31 -4.32 21.62 -5 24 C-5.33 24 -5.66 24 -6 24 C-6.33 18.72 -6.66 13.44 -7 8 C-6.34 8 -5.68 8 -5 8 C-5 8.99 -5 9.98 -5 11 C-3.35 10.34 -1.7 9.68 0 9 C0 6.03 0 3.06 0 0 Z " fill="#2E3030" transform="translate(170,289)"/>
<path d="M0 0 C0.66 0.33 1.32 0.66 2 1 C-4.99691992 12.99897331 -4.99691992 12.99897331 -11 15 C-11.1953125 13.01432292 -11.390625 11.02864583 -11.5859375 9.04296875 C-11.92665391 6.70011858 -11.92665391 6.70011858 -14 4 C-12.02 3.67 -10.04 3.34 -8 3 C-7.67 3.66 -7.34 4.32 -7 5 C-6.34 5 -5.68 5 -5 5 C-4.731875 4.360625 -4.46375 3.72125 -4.1875 3.0625 C-3 1 -3 1 0 0 Z " fill="#07090A" transform="translate(318,374)"/>
<path d="M0 0 C0 0.66 0 1.32 0 2 C0.66 2.33 1.32 2.66 2 3 C1.72285156 3.94101563 1.44570312 4.88203125 1.16015625 5.8515625 C0.79792969 7.09679687 0.43570313 8.34203125 0.0625 9.625 C-0.29714844 10.85476563 -0.65679687 12.08453125 -1.02734375 13.3515625 C-1.88485972 16.56810836 -2.51903985 19.70921999 -3 23 C-3.33 23 -3.66 23 -4 23 C-5.08318169 17.6787385 -6.152874 12.36513131 -7 7 C-6.34 7 -5.68 7 -5 7 C-5 5.02 -5 3.04 -5 1 C-2 0 -2 0 0 0 Z " fill="#252727" transform="translate(177,247)"/>
<path d="M0 0 C0.33 0 0.66 0 1 0 C1.36504603 1.58086048 1.71660506 3.16483907 2.0625 4.75 C2.25972656 5.63171875 2.45695313 6.5134375 2.66015625 7.421875 C2.99825872 9.98679028 2.81158635 11.57091639 2 14 C2 13.34 2 12.68 2 12 C-1.16115776 13.36983503 -1.9927092 13.9890638 -4 17 C-5.59162079 11.42932723 -6.20674944 6.78898419 -6 1 C-3.525 1.495 -3.525 1.495 -1 2 C-0.67 1.34 -0.34 0.68 0 0 Z " fill="#0F1312" transform="translate(173,321)"/>
<path d="M0 0 C3 2 3 2 3.51171875 4.1640625 C3.59873047 5.38222656 3.59873047 5.38222656 3.6875 6.625 C3.78611328 7.85089844 3.78611328 7.85089844 3.88671875 9.1015625 C3.92410156 9.72804688 3.96148437 10.35453125 4 11 C3.34 11 2.68 11 2 11 C1.34 12.32 0.68 13.64 0 15 C-1.32 14.67 -2.64 14.34 -4 14 C-4 14.66 -4 15.32 -4 16 C-4.66 16 -5.32 16 -6 16 C-5 14 -4 12 -3 10 C-2.34 10 -1.68 10 -1 10 C-2.06546953 7.86906094 -3.29159719 6.63412443 -5 5 C-3.35 3.35 -1.7 1.7 0 0 Z " fill="#121516" transform="translate(304,379)"/>
<path d="M0 0 C0.66 0.99 1.32 1.98 2 3 C1.34 3 0.68 3 0 3 C0.33 3.66 0.66 4.32 1 5 C3.02463255 5.65213292 3.02463255 5.65213292 5 6 C5 6.66 5 7.32 5 8 C5.45375 7.175 5.9075 6.35 6.375 5.5 C6.91125 4.675 7.4475 3.85 8 3 C8.66 3 9.32 3 10 3 C9.25 5.9375 9.25 5.9375 8 9 C5.875 9.875 5.875 9.875 4 10 C4 10.99 4 11.98 4 13 C2.68 13.33 1.36 13.66 0 14 C0 12.68 0 11.36 0 10 C-0.66 9.67 -1.32 9.34 -2 9 C-2 9.66 -2 10.32 -2 11 C-2.99 10.67 -3.98 10.34 -5 10 C-3.35 6.7 -1.7 3.4 0 0 Z " fill="#202323" transform="translate(321,352)"/>
<path d="M0 0 C0.99 0.33 1.98 0.66 3 1 C3.73046875 2.84765625 3.73046875 2.84765625 4.1875 5.0625 C4.34605469 5.79597656 4.50460938 6.52945312 4.66796875 7.28515625 C4.77753906 7.85105469 4.88710937 8.41695313 5 9 C4.34 9 3.68 9 3 9 C2.67 10.32 2.34 11.64 2 13 C1.34 13 0.68 13 0 13 C-4.02539208 7.93950709 -4.02539208 7.93950709 -3.9375 4.6875 C-3 3 -3 3 0 2 C0 1.34 0 0.68 0 0 Z " fill="#202222" transform="translate(188,364)"/>
<path d="M0 0 C0.33 0 0.66 0 1 0 C1.16435547 0.85271484 1.16435547 0.85271484 1.33203125 1.72265625 C2.37938166 6.82316758 3.79271753 11.284442 6 16 C5.01 16.99 4.02 17.98 3 19 C2.67 18.01 2.34 17.02 2 16 C2.33 15.67 2.66 15.34 3 15 C2.34 14.67 1.68 14.34 1 14 C1 14.66 1 15.32 1 16 C0.67 16.33 0.34 16.66 0 17 C0.66 17.66 1.32 18.32 2 19 C1.34 19.66 0.68 20.32 0 21 C-3 17.25 -3 17.25 -3 15 C-2.01 15 -1.02 15 0 15 C-0.309375 14.278125 -0.61875 13.55625 -0.9375 12.8125 C-1.92560539 10.19692691 -2.5287754 7.74881018 -3 5 C-2.01 5 -1.02 5 0 5 C0 3.35 0 1.7 0 0 Z " fill="#343736" transform="translate(145,303)"/>
<path d="M0 0 C3.58237455 4.67266246 4.11073636 7.02023637 4 13 C1.66785852 14.20628008 -0.49642139 15.1654738 -3 16 C-2.40984815 10.49191603 -1.43336231 5.35121931 0 0 Z " fill="#0B0E0D" transform="translate(169,256)"/>
<path d="M0 0 C2.475 0.99 2.475 0.99 5 2 C5 2.99 5 3.98 5 5 C5.66 5.33 6.32 5.66 7 6 C1.375 11 1.375 11 -2 11 C-3.35384615 4.6 -3.35384615 4.6 -1.5625 1.5625 C-1.046875 1.046875 -0.53125 0.53125 0 0 Z " fill="#0A0B0B" transform="translate(352,315)"/>
<path d="M0 0 C0.99 0.33 1.98 0.66 3 1 C3 1.99 3 2.98 3 4 C3.33 3.34 3.66 2.68 4 2 C7.16115776 3.36983503 7.9927092 3.9890638 10 7 C8.02 8.65 6.04 10.3 4 12 C1.16303068 9.4375761 -0.36733133 7.79601204 -1 4 C-1.33 3.34 -1.66 2.68 -2 2 C-1.34 2 -0.68 2 0 2 C0 1.34 0 0.68 0 0 Z " fill="#282A2A" transform="translate(146,317)"/>
<path d="M0 0 C0.33 0.66 0.66 1.32 1 2 C1.66 2.33 2.32 2.66 3 3 C3 4.32 3 5.64 3 7 C4.98 5.35 6.96 3.7 9 2 C9.66 4.31 10.32 6.62 11 9 C9.35 9.33 7.7 9.66 6 10 C5.67 11.32 5.34 12.64 5 14 C2.46690767 9.35796103 0.53484401 5.34844008 0 0 Z " fill="#2F3130" transform="translate(172,344)"/>
<path d="M0 0 C0.66 1.32 1.32 2.64 2 4 C3.32 3.67 4.64 3.34 6 3 C6 3.66 6 4.32 6 5 C5.01 5.33 4.02 5.66 3 6 C1.30117552 8.49759982 1.30117552 8.49759982 0 11 C-0.66 10.67 -1.32 10.34 -2 10 C-1.67 9.34 -1.34 8.68 -1 8 C-2.65 8 -4.3 8 -6 8 C-4.6875 4.5625 -4.6875 4.5625 -3 1 C-2.01 0.67 -1.02 0.34 0 0 Z " fill="#080B0C" transform="translate(326,350)"/>
<path d="M0 0 C2 1.75 2 1.75 4 4 C4 5.32 4 6.64 4 8 C4.66 8.33 5.32 8.66 6 9 C6 10.32 6 11.64 6 13 C4.68 13 3.36 13 2 13 C-0.91360308 8.22169095 -1.19876651 5.44893869 0 0 Z " fill="#141617" transform="translate(139,305)"/>
<path d="M0 0 C4.875 4.625 4.875 4.625 6 8 C5.34 8 4.68 8 4 8 C3.67 8.66 3.34 9.32 3 10 C0.9375 11.125 0.9375 11.125 -1 12 C-2.125 10.25 -2.125 10.25 -3 8 C-2.125 5.75 -2.125 5.75 -1 4 C-0.34 4 0.32 4 1 4 C0.67 2.68 0.34 1.36 0 0 Z " fill="#303130" transform="translate(192,369)"/>
<path d="M0 0 C2.00720923 0.28674418 4.0085944 0.61866701 6 1 C6 2.98 6 4.96 6 7 C3.625 7.625 3.625 7.625 1 8 C-1 6 -1 6 -1.1875 3.4375 C-1 1 -1 1 0 0 Z " fill="#484848" transform="translate(252,361)"/>
<path d="M0 0 C1.66611905 -0.042721 3.33382885 -0.04063832 5 0 C6 1 6 1 6.0625 4.0625 C6.041875 5.031875 6.02125 6.00125 6 7 C4.02 7 2.04 7 0 7 C-1.125 2.25 -1.125 2.25 0 0 Z " fill="#323232" transform="translate(237,363)"/>
<path d="M0 0 C1.65 0.33 3.3 0.66 5 1 C4.75 3.875 4.75 3.875 4 7 C2.125 8.4375 2.125 8.4375 0 9 C-0.99 8.67 -1.98 8.34 -3 8 C-3.6875 5.9375 -3.6875 5.9375 -4 4 C-3.34 3.525625 -2.68 3.05125 -2 2.5625 C-1.34 2.046875 -0.68 1.53125 0 1 C0 0.67 0 0.34 0 0 Z " fill="#1C1E1F" transform="translate(232,401)"/>
<path d="M0 0 C-0.66 0.66 -1.32 1.32 -2 2 C-2.99 2 -3.98 2 -5 2 C-7.15028304 2.94978897 -7.15028304 2.94978897 -9 4 C-9 4.66 -9 5.32 -9 6 C-10.53125 7.2890625 -10.53125 7.2890625 -12.5 8.625 C-13.1496875 9.07101562 -13.799375 9.51703125 -14.46875 9.9765625 C-14.9740625 10.31429688 -15.479375 10.65203125 -16 11 C-14.31972286 5.65366363 -11.38256019 2.27844693 -6.4375 -0.375 C-3.82751024 -1.04422814 -2.49886364 -0.92550505 0 0 Z " fill="#0D100F" transform="translate(156,279)"/>
<path d="M0 0 C1.67542976 0.28604898 3.34385343 0.61781233 5 1 C5 2.65 5 4.3 5 6 C3.34385343 6.38218767 1.67542976 6.71395102 0 7 C-1 6 -1 6 -1.125 3.5 C-1 1 -1 1 0 0 Z " fill="#414141" transform="translate(265,356)"/>
<path d="M0 0 C0 0.66 0 1.32 0 2 C0.66 2 1.32 2 2 2 C2 3.32 2 4.64 2 6 C1.01 6 0.02 6 -1 6 C-1.33 6.66 -1.66 7.32 -2 8 C-2.99 8 -3.98 8 -5 8 C-5.1875 5.125 -5.1875 5.125 -5 2 C-2 0 -2 0 0 0 Z " fill="#0C0E0F" transform="translate(175,333)"/>
<path d="M0 0 C0.33 0 0.66 0 1 0 C1.36504603 1.58086048 1.71660506 3.16483907 2.0625 4.75 C2.25972656 5.63171875 2.45695313 6.5134375 2.66015625 7.421875 C2.99825872 9.98679028 2.81158635 11.57091639 2 14 C2 13.34 2 12.68 2 12 C-1.16115776 13.36983503 -1.9927092 13.9890638 -4 17 C-3.4140625 10.84765625 -3.4140625 10.84765625 -3 9 C-2.34 8.67 -1.68 8.34 -1 8 C-0.53476937 6.10466658 -0.53476937 6.10466658 -0.375 3.9375 C-0.25125 2.638125 -0.1275 1.33875 0 0 Z " fill="#373A39" transform="translate(173,321)"/>
<path d="M0 0 C2.97 0.495 2.97 0.495 6 1 C6.33 1.99 6.66 2.98 7 4 C6.01 4.99 5.02 5.98 4 7 C3.67 6.01 3.34 5.02 3 4 C3.33 3.67 3.66 3.34 4 3 C3.34 2.67 2.68 2.34 2 2 C2 2.66 2 3.32 2 4 C1.67 4.33 1.34 4.66 1 5 C1.66 5.66 2.32 6.32 3 7 C2.34 7.66 1.68 8.32 1 9 C-2 5.25 -2 5.25 -2 3 C-1.01 3 -0.02 3 1 3 C0.67 2.01 0.34 1.02 0 0 Z " fill="#2C302F" transform="translate(144,315)"/>
<path d="M0 0 C1.65 0 3.3 0 5 0 C5.33 1.32 5.66 2.64 6 4 C5.01 4 4.02 4 3 4 C2.67 4.99 2.34 5.98 2 7 C0.68 6.34 -0.64 5.68 -2 5 C-1.34 3.35 -0.68 1.7 0 0 Z " fill="#0A0C0B" transform="translate(194,377)"/>
<path d="M0 0 C0.66 0 1.32 0 2 0 C2.33 1.32 2.66 2.64 3 4 C2.34 4 1.68 4 1 4 C0.67 5.32 0.34 6.64 0 8 C-0.66 8 -1.32 8 -2 8 C-2.66 6.35 -3.32 4.7 -4 3 C-3.01 2.67 -2.02 2.34 -1 2 C-0.67 1.34 -0.34 0.68 0 0 Z " fill="#080B0A" transform="translate(190,369)"/>
<path d="M0 0 C0.33 0 0.66 0 1 0 C1.042721 1.66611905 1.04063832 3.33382885 1 5 C0 6 0 6 -2.1875 6.3125 C-5.9215735 5.89760294 -8.02618922 4.21306849 -11 2 C-10.34 1.67 -9.68 1.34 -9 1 C-6.64018187 1.93578995 -4.30368736 2.93347808 -2 4 C-1.34 2.68 -0.68 1.36 0 0 Z " fill="#505151" transform="translate(162,328)"/>
<path d="M0 0 C0.33 0.66 0.66 1.32 1 2 C0.0625 4.625 0.0625 4.625 -1 7 C-3.31 6.67 -5.62 6.34 -8 6 C-5.38485683 3.87961365 -2.80362384 1.86908256 0 0 Z " fill="#282A2A" transform="translate(344,321)"/>
<path d="M0 0 C2.03833424 1.2739589 4.03852126 2.61061923 6 4 C6 4.66 6 5.32 6 6 C6.66 6.33 7.32 6.66 8 7 C4.97580475 6.41196203 1.98241547 5.77321882 -1 5 C-0.67 3.35 -0.34 1.7 0 0 Z " fill="#373B3A" transform="translate(205,384)"/>
<path d="M0 0 C0.33 0 0.66 0 1 0 C1.33 4.62 1.66 9.24 2 14 C1.34 13.34 0.68 12.68 0 12 C-0.99 12.66 -1.98 13.32 -3 14 C-2.125 10.125 -2.125 10.125 -1 9 C-0.76807135 7.48530552 -0.58784762 5.96245438 -0.4375 4.4375 C-0.35371094 3.61121094 -0.26992187 2.78492188 -0.18359375 1.93359375 C-0.12300781 1.29550781 -0.06242188 0.65742188 0 0 Z " fill="#5C5D5E" transform="translate(171,307)"/>
<path d="M0 0 C1.98 0 3.96 0 6 0 C6 0.66 6 1.32 6 2 C3.36 2.99 0.72 3.98 -2 5 C-2 4.01 -2 3.02 -2 2 C-1.34 2 -0.68 2 0 2 C0 1.34 0 0.68 0 0 Z " fill="#1D1E1D" transform="translate(151,284)"/>
<path d="M0 0 C0.99 0.33 1.98 0.66 3 1 C3 3 3 5 3 7 C2.01 7 1.02 7 0 7 C-0.33 6.01 -0.66 5.02 -1 4 C-1.33 3.34 -1.66 2.68 -2 2 C-1.34 2 -0.68 2 0 2 C0 1.34 0 0.68 0 0 Z " fill="#060908" transform="translate(146,317)"/>
<path d="M0 0 C1.5 1.375 1.5 1.375 3 3 C3 3.66 3 4.32 3 5 C2.34 5 1.68 5 1 5 C1 5.66 1 6.32 1 7 C0.34 7 -0.32 7 -1 7 C-0.67 4.69 -0.34 2.38 0 0 Z " fill="#07070A" transform="translate(139,305)"/>
<path d="M0 0 C0.99 0.66 1.98 1.32 3 2 C1.71937515 3.7074998 0.38232443 5.37373596 -1 7 C-1.66 7 -2.32 7 -3 7 C-2.690625 6.401875 -2.38125 5.80375 -2.0625 5.1875 C-0.89790296 2.91043228 -0.89790296 2.91043228 0 0 Z " fill="#020404" transform="translate(310,382)"/>
</svg>
